<svg width="512" height="512" viewBox="0 0 24 24" fill="none" xmlns="http://www.w3.org/2000/svg">
      <!-- Outer circle - black fill with white outline -->
      <circle cx="12" cy="12" r="11" stroke="#ffffff" stroke-width="1.5" fill="#000000"/>
      
      <!-- Network nodes - white fill -->
      <circle cx="12" cy="6" r="1.5" fill="#ffffff"/>
      <circle cx="18" cy="12" r="1.5" fill="#ffffff"/>
      <circle cx="12" cy="18" r="1.5" fill="#ffffff"/>
      <circle cx="6" cy="12" r="1.5" fill="#ffffff"/>
      <circle cx="9" cy="9" r="1.2" fill="#ffffff"/>
      <circle cx="15" cy="9" r="1.2" fill="#ffffff"/>
      <circle cx="15" cy="15" r="1.2" fill="#ffffff"/>
      <circle cx="9" cy="15" r="1.2" fill="#ffffff"/>
      
      <!-- Central node - white fill -->
      <circle cx="12" cy="12" r="1.8" fill="#ffffff"/>
      
      <!-- Connection lines - white -->
      <path d="M12 6 L12 12 M18 12 L12 12 M12 18 L12 12 M6 12 L12 12 M9 9 L12 12 M15 9 L12 12 M15 15 L12 12 M9 15 L12 12" stroke="#ffffff" stroke-width="1" opacity="0.8"/>
    </svg>